<svg width="341" height="284" viewBox="0 0 341 284" fill="none" xmlns="http://www.w3.org/2000/svg">
<rect x="97" y="9" width="140" height="108" rx="15" fill="white"/>
<rect x="97" y="9" width="140" height="108" rx="15" stroke="url(#paint0_linear_445_11115)" stroke-width="2"/>
<g filter="url(#filter0_dd_445_11115)">
<rect x="96" y="8" width="142" height="110" rx="16" fill="white" fill-opacity="0.01" shape-rendering="crispEdges"/>
</g>
<mask id="mask0_445_11115" style="mask-type:luminance" maskUnits="userSpaceOnUse" x="113" y="52" width="105" height="20">
<path d="M217.955 52.6104H113.887V71.9604H217.955V52.6104Z" fill="white"/>
</mask>
<g mask="url(#mask0_445_11115)">
<path d="M125.437 70.6135C125.974 70.3583 126.463 70.0704 126.905 69.749C128.03 68.9317 129.057 67.9249 129.939 66.8487C130.146 66.5966 130.37 66.359 130.61 66.1364C130.727 66.0279 130.85 65.9354 130.976 65.8586C131.36 65.6259 131.822 65.536 132.268 65.6003C132.884 65.6894 133.375 66.1642 133.542 66.7443C133.625 67.0322 133.623 67.372 133.569 67.6714C133.521 67.9368 133.437 68.1925 133.317 68.4384C132.97 69.1468 132.423 69.7535 131.789 70.2163C131.548 70.3927 131.247 70.5879 130.885 70.8022C130.742 70.8868 130.593 70.9657 130.438 71.0385C129.759 71.3589 129.07 71.5851 128.373 71.7169C127.43 71.8955 126.493 71.8885 125.562 71.6962C125.295 71.6411 125.105 71.4048 125.105 71.1332C125.105 70.9106 125.235 70.7091 125.437 70.6135Z" fill="#0770E3"/>
<path d="M132.27 58.8699C131.823 58.9347 131.362 58.8444 130.978 58.6116C130.851 58.5349 130.729 58.4423 130.612 58.3339C130.371 58.1108 130.147 57.8736 129.941 57.6215C129.059 56.5454 128.032 55.5381 126.907 54.7212C126.465 54.3998 125.975 54.112 125.438 53.8567C125.236 53.7611 125.107 53.5592 125.107 53.3366C125.107 53.065 125.297 52.8287 125.564 52.7736C126.495 52.5814 127.432 52.5743 128.375 52.7529C129.072 52.8847 129.761 53.1108 130.44 53.4313C130.594 53.5041 130.744 53.583 130.886 53.6676C131.248 53.8823 131.55 54.0776 131.791 54.2535C132.425 54.7168 132.972 55.323 133.319 56.0314C133.439 56.2774 133.523 56.5331 133.571 56.7985C133.625 57.0978 133.626 57.4381 133.544 57.7255C133.377 58.3061 132.886 58.7809 132.27 58.8699Z" fill="#0770E3"/>
<path d="M123.836 71.7153C123.044 71.9278 122.245 71.994 121.44 71.9142C117.933 71.565 115.312 68.7084 114.348 65.4797C114.035 64.4319 113.882 63.369 113.887 62.2911C113.882 61.2129 114.035 60.15 114.348 59.1022C115.313 55.8739 117.933 53.0168 121.44 52.6677C122.245 52.5874 123.043 52.654 123.836 52.8665C124.027 52.9176 124.159 53.0918 124.159 53.2888V53.4021C124.159 53.5392 124.078 53.664 123.952 53.7195C122.037 54.5641 120.536 56.1331 119.646 58.0137C119.014 59.3499 118.698 60.8183 118.706 62.2907C118.699 63.7631 119.014 65.2315 119.646 66.5677C120.536 68.4483 122.037 70.0172 123.952 70.8619C124.078 70.9174 124.159 71.0417 124.159 71.1793V71.2926C124.159 71.4896 124.027 71.6642 123.836 71.7153Z" fill="#0770E3"/>
<path d="M214.609 71.6246V58.374H217.947V71.6246H214.609Z" fill="#0770E3"/>
<path d="M217.954 52.624H214.6V55.9657H217.954V52.624Z" fill="#0770E3"/>
<path d="M204.817 58.124C205.67 58.124 206.372 58.2657 206.925 58.549C207.477 58.8157 207.911 59.1157 208.23 59.4491C208.548 59.7658 208.766 60.0241 208.882 60.2241H209.032V58.374H212.371V71.6246H209.032V69.7745H208.882C208.766 69.9745 208.548 70.2412 208.23 70.5746C207.911 70.9079 207.477 71.2079 206.925 71.4746C206.372 71.7413 205.67 71.8746 204.817 71.8746C203.829 71.8746 202.968 71.683 202.231 71.2996C201.495 70.8996 200.876 70.3746 200.373 69.7246C199.888 69.0578 199.52 68.3161 199.269 67.4994C199.035 66.6827 198.918 65.8494 198.918 64.9993C198.918 64.1493 199.035 63.3159 199.269 62.4992C199.52 61.6825 199.888 60.9491 200.373 60.2991C200.876 59.6324 201.495 59.1074 202.231 58.724C202.968 58.324 203.829 58.124 204.817 58.124ZM205.695 60.8491C204.942 60.8491 204.306 61.0575 203.787 61.4742C203.285 61.8742 202.908 62.3909 202.658 63.0243C202.407 63.6576 202.281 64.3159 202.281 64.9993C202.281 65.6827 202.407 66.3411 202.658 66.9744C202.908 67.6078 203.285 68.1328 203.787 68.5495C204.306 68.9495 204.942 69.1495 205.695 69.1495C206.448 69.1495 207.075 68.9495 207.577 68.5495C208.079 68.1328 208.456 67.6078 208.706 66.9744C208.958 66.3411 209.083 65.6827 209.083 64.9993C209.083 64.3159 208.958 63.6576 208.706 63.0243C208.456 62.3909 208.079 61.8742 207.577 61.4742C207.075 61.0575 206.448 60.8491 205.695 60.8491Z" fill="#0770E3"/>
<path d="M197.382 68.2695H194.027V71.6112H197.382V68.2695Z" fill="#0770E3"/>
<path d="M183.849 58.124C184.703 58.124 185.406 58.2657 185.958 58.549C186.51 58.8157 186.945 59.1157 187.263 59.4491C187.581 59.7658 187.798 60.0241 187.916 60.2241H188.066V58.374H191.405V71.6246H188.066V69.7745H187.916C187.798 69.9745 187.581 70.2412 187.263 70.5746C186.945 70.9079 186.51 71.2079 185.958 71.4746C185.406 71.7413 184.703 71.8746 183.849 71.8746C182.862 71.8746 182 71.683 181.264 71.2996C180.528 70.8996 179.909 70.3746 179.407 69.7246C178.922 69.0578 178.554 68.3161 178.303 67.4994C178.068 66.6827 177.951 65.8494 177.951 64.9993C177.951 64.1493 178.068 63.3159 178.303 62.4992C178.554 61.6825 178.922 60.9491 179.407 60.2991C179.909 59.6324 180.528 59.1074 181.264 58.724C182 58.324 182.862 58.124 183.849 58.124ZM184.728 60.8491C183.975 60.8491 183.339 61.0575 182.82 61.4742C182.319 61.8742 181.942 62.3909 181.691 63.0243C181.44 63.6576 181.315 64.3159 181.315 64.9993C181.315 65.6827 181.44 66.3411 181.691 66.9744C181.942 67.6078 182.319 68.1328 182.82 68.5495C183.339 68.9495 183.975 69.1495 184.728 69.1495C185.481 69.1495 186.108 68.9495 186.611 68.5495C187.112 68.1328 187.489 67.6078 187.74 66.9744C187.991 66.3411 188.116 65.6827 188.116 64.9993C188.116 64.3159 187.991 63.6576 187.74 63.0243C187.489 62.3909 187.112 61.8742 186.611 61.4742C186.108 61.0575 185.481 60.8491 184.728 60.8491Z" fill="#0770E3"/>
<path d="M170.604 71.8748C169.75 71.8748 169.048 71.7415 168.495 71.4748C167.943 71.1915 167.508 70.8832 167.19 70.5498C166.889 70.2165 166.68 69.9581 166.563 69.7747H166.387V71.6249H163.049V52.624H166.387V60.2243H166.563C166.68 60.0243 166.889 59.7576 167.19 59.4243C167.508 59.091 167.943 58.791 168.495 58.5243C169.048 58.2576 169.75 58.1242 170.604 58.1242C171.608 58.1242 172.478 58.3243 173.214 58.7243C173.951 59.1076 174.561 59.6326 175.046 60.2994C175.531 60.9494 175.892 61.6827 176.126 62.4995C176.376 63.3161 176.502 64.1495 176.502 64.9996C176.502 65.8496 176.376 66.683 176.126 67.4997C175.892 68.3164 175.531 69.0581 175.046 69.7248C174.561 70.3748 173.951 70.8998 173.214 71.2999C172.478 71.6832 171.608 71.8748 170.604 71.8748ZM169.725 69.1497C170.495 69.1497 171.131 68.9497 171.633 68.5497C172.135 68.133 172.511 67.608 172.762 66.9746C173.013 66.3413 173.139 65.6829 173.139 64.9996C173.139 64.3162 173.013 63.6579 172.762 63.0245C172.511 62.3911 172.135 61.8744 171.633 61.4744C171.131 61.0577 170.495 60.8494 169.725 60.8494C168.973 60.8494 168.345 61.0577 167.843 61.4744C167.341 61.8744 166.965 62.3911 166.713 63.0245C166.462 63.6579 166.337 64.3162 166.337 64.9996C166.337 65.6829 166.462 66.3413 166.713 66.9746C166.965 67.608 167.341 68.133 167.843 68.5497C168.345 68.9497 168.973 69.1497 169.725 69.1497Z" fill="#0770E3"/>
<path d="M141.486 71.6246V58.374H144.825V60.2241H144.95C145.117 59.9241 145.352 59.6158 145.653 59.2991C145.954 58.9657 146.339 58.6907 146.807 58.474C147.293 58.2407 147.887 58.124 148.589 58.124C149.577 58.124 150.388 58.3574 151.024 58.8241C151.66 59.2907 152.128 59.8907 152.43 60.6241H152.48C152.815 59.9908 153.308 59.4157 153.961 58.8991C154.63 58.3824 155.517 58.124 156.621 58.124C157.558 58.124 158.337 58.3407 158.955 58.7741C159.591 59.1907 160.06 59.7574 160.361 60.4741C160.679 61.1909 160.838 61.9659 160.838 62.7992V71.6246H157.5V63.4992C157.5 62.7325 157.308 62.1075 156.922 61.6241C156.554 61.1242 156.002 60.8741 155.266 60.8741C154.68 60.8741 154.203 61.0325 153.835 61.3492C153.484 61.6492 153.224 62.0325 153.057 62.4992C152.907 62.9659 152.831 63.4409 152.831 63.9243V71.6246H149.493V63.4992C149.493 62.7325 149.309 62.1075 148.941 61.6241C148.573 61.1242 148.012 60.8741 147.259 60.8741C146.674 60.8741 146.197 61.0325 145.829 61.3492C145.477 61.6492 145.218 62.0408 145.05 62.5242C144.9 62.9909 144.825 63.4576 144.825 63.9243V71.6246H141.486Z" fill="#0770E3"/>
<path d="M135.822 71.6246V58.374H139.161V71.6246H135.822Z" fill="#0770E3"/>
<path d="M139.167 52.624H135.812V55.9657H139.167V52.624Z" fill="#0770E3"/>
</g>
<rect x="96.5" y="135.5" width="141" height="58" rx="11.5" fill="white"/>
<rect x="96.5" y="135.5" width="141" height="58" rx="11.5" stroke="#E8E8E8"/>
<g clip-path="url(#clip0_445_11115)">
<path d="M131.263 158.11C131.295 157.938 131.386 157.783 131.521 157.671C131.655 157.559 131.825 157.498 132 157.498C132.175 157.498 132.344 157.559 132.479 157.671C132.614 157.783 132.705 157.938 132.737 158.11L133.525 162.279C133.581 162.575 133.725 162.848 133.939 163.061C134.152 163.274 134.424 163.418 134.721 163.474L138.889 164.263C139.061 164.295 139.217 164.386 139.329 164.521C139.44 164.655 139.502 164.825 139.502 165C139.502 165.175 139.44 165.344 139.329 165.479C139.217 165.614 139.061 165.705 138.889 165.737L134.721 166.525C134.424 166.581 134.152 166.725 133.939 166.939C133.725 167.152 133.581 167.424 133.525 167.721L132.737 171.889C132.705 172.061 132.614 172.217 132.479 172.329C132.344 172.44 132.175 172.502 132 172.502C131.825 172.502 131.655 172.44 131.521 172.329C131.386 172.217 131.295 172.061 131.263 171.889L130.474 167.721C130.418 167.424 130.274 167.152 130.061 166.939C129.848 166.725 129.575 166.581 129.279 166.525L125.11 165.737C124.938 165.705 124.783 165.614 124.671 165.479C124.559 165.344 124.498 165.175 124.498 165C124.498 164.825 124.559 164.655 124.671 164.521C124.783 164.386 124.938 164.295 125.11 164.263L129.279 163.474C129.575 163.418 129.848 163.274 130.061 163.061C130.274 162.848 130.418 162.575 130.474 162.279L131.263 158.11Z" stroke="#0770E3" stroke-width="1.5" stroke-linecap="round" stroke-linejoin="round"/>
<path d="M138 157.5V160.5" stroke="#0770E3" stroke-width="1.5" stroke-linecap="round" stroke-linejoin="round"/>
<path d="M139.5 159H136.5" stroke="#0770E3" stroke-width="1.5" stroke-linecap="round" stroke-linejoin="round"/>
<path d="M126 172.5C126.828 172.5 127.5 171.828 127.5 171C127.5 170.172 126.828 169.5 126 169.5C125.172 169.5 124.5 170.172 124.5 171C124.5 171.828 125.172 172.5 126 172.5Z" stroke="#0770E3" stroke-width="1.5" stroke-linecap="round" stroke-linejoin="round"/>
</g>
<path d="M158.961 168.633H154.719L153.922 171H151.406L155.516 159.484H158.234L162.312 171H159.703L158.961 168.633ZM158.289 166.648L156.852 162.117L155.367 166.648H158.289ZM163.594 159.484H165.984V171H163.594V159.484ZM181.055 159.484V161.523H177.609V171H175.188V161.523H171.727V159.484H181.055ZM188.203 163.562C188.922 164.464 189.281 165.529 189.281 166.758C189.281 168.008 188.922 169.078 188.203 169.969C187.484 170.854 186.393 171.297 184.93 171.297C183.466 171.297 182.375 170.854 181.656 169.969C180.938 169.078 180.578 168.008 180.578 166.758C180.578 165.529 180.938 164.464 181.656 163.562C182.375 162.661 183.466 162.211 184.93 162.211C186.393 162.211 187.484 162.661 188.203 163.562ZM184.922 164.094C184.271 164.094 183.768 164.326 183.414 164.789C183.065 165.247 182.891 165.904 182.891 166.758C182.891 167.612 183.065 168.271 183.414 168.734C183.768 169.198 184.271 169.43 184.922 169.43C185.573 169.43 186.073 169.198 186.422 168.734C186.771 168.271 186.945 167.612 186.945 166.758C186.945 165.904 186.771 165.247 186.422 164.789C186.073 164.326 185.573 164.094 184.922 164.094ZM197.984 163.562C198.703 164.464 199.062 165.529 199.062 166.758C199.062 168.008 198.703 169.078 197.984 169.969C197.266 170.854 196.174 171.297 194.711 171.297C193.247 171.297 192.156 170.854 191.438 169.969C190.719 169.078 190.359 168.008 190.359 166.758C190.359 165.529 190.719 164.464 191.438 163.562C192.156 162.661 193.247 162.211 194.711 162.211C196.174 162.211 197.266 162.661 197.984 163.562ZM194.703 164.094C194.052 164.094 193.549 164.326 193.195 164.789C192.846 165.247 192.672 165.904 192.672 166.758C192.672 167.612 192.846 168.271 193.195 168.734C193.549 169.198 194.052 169.43 194.703 169.43C195.354 169.43 195.854 169.198 196.203 168.734C196.552 168.271 196.727 167.612 196.727 166.758C196.727 165.904 196.552 165.247 196.203 164.789C195.854 164.326 195.354 164.094 194.703 164.094ZM200.711 159.484H202.938V171H200.711V159.484ZM210.984 162.875C211.651 163.302 212.034 164.036 212.133 165.078H209.906C209.875 164.792 209.794 164.565 209.664 164.398C209.419 164.096 209.003 163.945 208.414 163.945C207.93 163.945 207.583 164.021 207.375 164.172C207.172 164.323 207.07 164.5 207.07 164.703C207.07 164.958 207.18 165.143 207.398 165.258C207.617 165.378 208.391 165.583 209.719 165.875C210.604 166.083 211.268 166.398 211.711 166.82C212.148 167.247 212.367 167.781 212.367 168.422C212.367 169.266 212.052 169.956 211.422 170.492C210.797 171.023 209.828 171.289 208.516 171.289C207.177 171.289 206.188 171.008 205.547 170.445C204.911 169.878 204.594 169.156 204.594 168.281H206.852C206.898 168.677 207 168.958 207.156 169.125C207.432 169.422 207.943 169.57 208.688 169.57C209.125 169.57 209.471 169.505 209.727 169.375C209.987 169.245 210.117 169.049 210.117 168.789C210.117 168.539 210.013 168.349 209.805 168.219C209.596 168.089 208.823 167.865 207.484 167.547C206.521 167.307 205.841 167.008 205.445 166.648C205.049 166.294 204.852 165.784 204.852 165.117C204.852 164.331 205.159 163.656 205.773 163.094C206.393 162.526 207.263 162.242 208.383 162.242C209.445 162.242 210.312 162.453 210.984 162.875Z" fill="#0770E3"/>
<rect x="96.5" y="211.5" width="141" height="58" rx="11.5" fill="white"/>
<rect x="96.5" y="211.5" width="141" height="58" rx="11.5" stroke="#E8E8E8"/>
<path d="M125.25 234.25V246.25C125.25 246.648 125.408 247.029 125.689 247.311C125.971 247.592 126.352 247.75 126.75 247.75H138.75" stroke="#0770E3" stroke-width="1.5" stroke-linecap="round" stroke-linejoin="round"/>
<path d="M136.5 244.75V238.75" stroke="#0770E3" stroke-width="1.5" stroke-linecap="round" stroke-linejoin="round"/>
<path d="M132.75 244.75V235.75" stroke="#0770E3" stroke-width="1.5" stroke-linecap="round" stroke-linejoin="round"/>
<path d="M129 244.75V242.5" stroke="#0770E3" stroke-width="1.5" stroke-linecap="round" stroke-linejoin="round"/>
<path d="M157.477 247H152.258V235.484H157.852C159.263 235.505 160.263 235.914 160.852 236.711C161.206 237.201 161.383 237.786 161.383 238.469C161.383 239.172 161.206 239.737 160.852 240.164C160.654 240.404 160.362 240.622 159.977 240.82C160.565 241.034 161.008 241.372 161.305 241.836C161.607 242.299 161.758 242.862 161.758 243.523C161.758 244.206 161.586 244.818 161.242 245.359C161.023 245.719 160.75 246.021 160.422 246.266C160.052 246.547 159.615 246.74 159.109 246.844C158.609 246.948 158.065 247 157.477 247ZM157.422 241.93H154.555V245H157.383C157.888 245 158.281 244.932 158.562 244.797C159.073 244.547 159.328 244.068 159.328 243.359C159.328 242.76 159.081 242.349 158.586 242.125C158.31 242 157.922 241.935 157.422 241.93ZM158.617 239.734C158.93 239.547 159.086 239.211 159.086 238.727C159.086 238.19 158.878 237.836 158.461 237.664C158.102 237.544 157.643 237.484 157.086 237.484H154.555V240.023H157.383C157.888 240.023 158.299 239.927 158.617 239.734ZM163.594 235.484H165.984V247H163.594V235.484ZM181.055 235.484V237.523H177.609V247H175.188V237.523H171.727V235.484H181.055ZM188.203 239.562C188.922 240.464 189.281 241.529 189.281 242.758C189.281 244.008 188.922 245.078 188.203 245.969C187.484 246.854 186.393 247.297 184.93 247.297C183.466 247.297 182.375 246.854 181.656 245.969C180.938 245.078 180.578 244.008 180.578 242.758C180.578 241.529 180.938 240.464 181.656 239.562C182.375 238.661 183.466 238.211 184.93 238.211C186.393 238.211 187.484 238.661 188.203 239.562ZM184.922 240.094C184.271 240.094 183.768 240.326 183.414 240.789C183.065 241.247 182.891 241.904 182.891 242.758C182.891 243.612 183.065 244.271 183.414 244.734C183.768 245.198 184.271 245.43 184.922 245.43C185.573 245.43 186.073 245.198 186.422 244.734C186.771 244.271 186.945 243.612 186.945 242.758C186.945 241.904 186.771 241.247 186.422 240.789C186.073 240.326 185.573 240.094 184.922 240.094ZM197.984 239.562C198.703 240.464 199.062 241.529 199.062 242.758C199.062 244.008 198.703 245.078 197.984 245.969C197.266 246.854 196.174 247.297 194.711 247.297C193.247 247.297 192.156 246.854 191.438 245.969C190.719 245.078 190.359 244.008 190.359 242.758C190.359 241.529 190.719 240.464 191.438 239.562C192.156 238.661 193.247 238.211 194.711 238.211C196.174 238.211 197.266 238.661 197.984 239.562ZM194.703 240.094C194.052 240.094 193.549 240.326 193.195 240.789C192.846 241.247 192.672 241.904 192.672 242.758C192.672 243.612 192.846 244.271 193.195 244.734C193.549 245.198 194.052 245.43 194.703 245.43C195.354 245.43 195.854 245.198 196.203 244.734C196.552 244.271 196.727 243.612 196.727 242.758C196.727 241.904 196.552 241.247 196.203 240.789C195.854 240.326 195.354 240.094 194.703 240.094ZM200.711 235.484H202.938V247H200.711V235.484ZM210.984 238.875C211.651 239.302 212.034 240.036 212.133 241.078H209.906C209.875 240.792 209.794 240.565 209.664 240.398C209.419 240.096 209.003 239.945 208.414 239.945C207.93 239.945 207.583 240.021 207.375 240.172C207.172 240.323 207.07 240.5 207.07 240.703C207.07 240.958 207.18 241.143 207.398 241.258C207.617 241.378 208.391 241.583 209.719 241.875C210.604 242.083 211.268 242.398 211.711 242.82C212.148 243.247 212.367 243.781 212.367 244.422C212.367 245.266 212.052 245.956 211.422 246.492C210.797 247.023 209.828 247.289 208.516 247.289C207.177 247.289 206.188 247.008 205.547 246.445C204.911 245.878 204.594 245.156 204.594 244.281H206.852C206.898 244.677 207 244.958 207.156 245.125C207.432 245.422 207.943 245.57 208.688 245.57C209.125 245.57 209.471 245.505 209.727 245.375C209.987 245.245 210.117 245.049 210.117 244.789C210.117 244.539 210.013 244.349 209.805 244.219C209.596 244.089 208.823 243.865 207.484 243.547C206.521 243.307 205.841 243.008 205.445 242.648C205.049 242.294 204.852 241.784 204.852 241.117C204.852 240.331 205.159 239.656 205.773 239.094C206.393 238.526 207.263 238.242 208.383 238.242C209.445 238.242 210.312 238.453 210.984 238.875Z" fill="#0770E3"/>
<path fill-rule="evenodd" clip-rule="evenodd" d="M293.976 159.694C293.667 159.113 293.292 158.57 292.857 158.075C292.256 157.453 291.585 156.902 290.858 156.433C291.667 155.597 292.288 154.597 292.678 153.501C293.068 152.405 293.218 151.238 293.119 150.079C293.106 148.094 292.308 146.196 290.898 144.8C289.488 143.404 287.583 142.623 285.598 142.629C283.476 142.578 281.419 143.362 279.869 144.813C278.32 146.265 277.403 148.267 277.316 150.388C277.278 151.724 277.629 153.043 278.326 154.184C279.023 155.324 280.037 156.238 281.243 156.814C280.243 157.342 279.295 157.964 278.411 158.67C277.563 159.401 276.826 160.251 276.221 161.193C275.677 162.015 275.303 162.937 275.123 163.906C274.943 164.876 274.961 165.871 275.174 166.833C275.174 166.938 275.195 167.041 275.236 167.136C275.278 167.232 275.338 167.318 275.414 167.389C275.49 167.461 275.579 167.516 275.677 167.551C275.775 167.587 275.88 167.602 275.983 167.595C276.183 167.565 276.364 167.46 276.488 167.3C276.613 167.141 276.67 166.939 276.65 166.738C276.639 165.633 276.971 164.552 277.602 163.644C278.215 162.7 278.916 161.815 279.696 161.003C280.862 159.717 282.076 158.432 283.076 157.456C283.8 157.638 284.542 157.741 285.289 157.766C285.447 157.736 285.59 157.652 285.693 157.528C285.795 157.404 285.852 157.248 285.852 157.088C285.852 156.927 285.795 156.771 285.693 156.647C285.59 156.523 285.447 156.439 285.289 156.409C281.077 155.981 279.244 153.315 279.458 150.483C279.621 148.983 280.359 147.604 281.517 146.636C282.676 145.668 284.164 145.188 285.67 145.295C287.044 145.269 288.373 145.788 289.367 146.737C290.361 147.686 290.94 148.99 290.977 150.364C291.26 151.758 290.985 153.207 290.211 154.4C289.436 155.593 288.224 156.434 286.836 156.743C286.632 156.767 286.445 156.87 286.316 157.03C286.187 157.19 286.126 157.394 286.146 157.599C286.181 157.797 286.288 157.974 286.446 158.097C286.604 158.221 286.803 158.281 287.003 158.266C287.833 158.174 288.639 157.932 289.383 157.552C289.952 158.223 290.476 158.93 290.953 159.67C291.239 160.098 291.501 160.55 291.739 160.979C291.977 161.407 292.262 161.859 292.5 162.312C293.086 163.436 293.58 164.606 293.976 165.81C294.021 166.006 294.141 166.177 294.309 166.288C294.477 166.399 294.682 166.441 294.88 166.405C294.98 166.388 295.076 166.351 295.161 166.296C295.247 166.24 295.319 166.168 295.375 166.083C295.431 165.998 295.469 165.902 295.486 165.802C295.503 165.702 295.5 165.599 295.475 165.501C295.395 164.113 295.155 162.74 294.761 161.407C294.549 160.814 294.286 160.241 293.976 159.694Z" fill="#111111"/>
<path fill-rule="evenodd" clip-rule="evenodd" d="M331.316 161.408C331.12 160.817 330.873 160.244 330.578 159.695C330.271 159.148 329.904 158.637 329.484 158.171C328.882 157.55 328.211 156.999 327.484 156.529C328.315 155.704 328.957 154.709 329.368 153.612C329.779 152.515 329.948 151.343 329.864 150.175C329.852 148.191 329.053 146.293 327.644 144.896C326.234 143.5 324.328 142.719 322.344 142.726C320.229 142.66 318.173 143.426 316.616 144.858C315.059 146.291 314.125 148.276 314.014 150.389C313.955 151.708 314.278 153.017 314.946 154.157C315.613 155.297 316.595 156.22 317.774 156.815C316.771 157.338 315.822 157.96 314.942 158.671C314.088 159.396 313.35 160.246 312.753 161.194C312.208 162.015 311.834 162.938 311.654 163.907C311.475 164.877 311.492 165.872 311.705 166.834C311.752 167.017 311.864 167.175 312.02 167.28C312.176 167.385 312.365 167.428 312.551 167.401C312.738 167.375 312.907 167.28 313.028 167.136C313.148 166.992 313.212 166.808 313.205 166.62C313.214 165.515 313.554 164.437 314.181 163.526C314.77 162.627 315.439 161.783 316.18 161.004C317.346 159.718 318.56 158.433 319.559 157.457C320.284 157.639 321.026 157.742 321.773 157.767C321.931 157.737 322.073 157.653 322.176 157.529C322.279 157.405 322.335 157.249 322.335 157.089C322.335 156.928 322.279 156.772 322.176 156.648C322.073 156.524 321.931 156.44 321.773 156.41C317.774 155.982 315.87 153.316 316.085 150.484C316.247 148.984 316.985 147.604 318.144 146.637C319.302 145.669 320.791 145.189 322.296 145.296C323.671 145.27 324.999 145.789 325.993 146.738C326.987 147.688 327.566 148.991 327.603 150.365C327.884 151.772 327.596 153.234 326.802 154.429C326.008 155.624 324.773 156.457 323.367 156.743C323.267 156.754 323.17 156.785 323.082 156.833C322.994 156.882 322.916 156.947 322.853 157.025C322.79 157.104 322.743 157.194 322.715 157.291C322.687 157.387 322.678 157.488 322.689 157.588C322.7 157.688 322.73 157.785 322.779 157.873C322.827 157.962 322.892 158.04 322.971 158.102C323.049 158.165 323.139 158.212 323.236 158.24C323.333 158.269 323.434 158.277 323.534 158.267C324.364 158.175 325.17 157.933 325.914 157.553C326.483 158.224 327.008 158.931 327.484 159.671C327.77 160.099 328.032 160.551 328.27 160.98C328.508 161.408 328.794 161.86 329.031 162.313C329.609 163.437 330.095 164.608 330.483 165.811C330.529 166.007 330.648 166.178 330.817 166.289C330.985 166.4 331.189 166.442 331.387 166.406C331.486 166.386 331.58 166.347 331.663 166.291C331.747 166.234 331.818 166.162 331.874 166.078C331.929 165.994 331.967 165.9 331.986 165.801C332.005 165.702 332.003 165.6 331.983 165.502C331.918 164.116 331.694 162.743 331.316 161.408Z" fill="#111111"/>
<path fill-rule="evenodd" clip-rule="evenodd" d="M305.71 128.208C305.353 128.922 305.043 129.636 304.663 130.588L303.877 132.658L303.33 134.277L302.973 135.467L301.45 134.11L299.546 132.444L296.523 129.66C296.461 129.596 296.387 129.546 296.305 129.512C296.224 129.477 296.136 129.46 296.047 129.46C295.958 129.46 295.871 129.477 295.789 129.512C295.707 129.546 295.633 129.596 295.571 129.66C295.508 129.722 295.457 129.796 295.423 129.877C295.389 129.959 295.371 130.047 295.371 130.136C295.371 130.224 295.389 130.312 295.423 130.394C295.457 130.475 295.508 130.549 295.571 130.612L298.379 133.705L300.117 135.514L301.83 137.347C302.068 137.585 302.306 138.204 302.521 138.394C302.753 138.595 303.046 138.712 303.353 138.727C303.551 138.726 303.745 138.681 303.922 138.594C304.1 138.508 304.255 138.382 304.377 138.227C304.644 137.905 304.861 137.544 305.02 137.156C305.329 136.466 305.543 135.633 305.733 135.11L306.305 133.491L307.09 131.54L309.089 127.137C310.092 125.183 311.238 123.306 312.516 121.52C313.79 119.772 315.259 118.175 316.895 116.76C317.053 116.634 317.154 116.45 317.177 116.249C317.199 116.049 317.141 115.847 317.014 115.689C316.888 115.532 316.704 115.43 316.504 115.408C316.303 115.386 316.101 115.444 315.943 115.57C314.094 116.952 312.416 118.55 310.946 120.33C309.461 122.104 308.117 123.99 306.923 125.971C306.447 126.804 306.067 127.494 305.71 128.208Z" fill="#10B981"/>
<path fill-rule="evenodd" clip-rule="evenodd" d="M322.084 128.541C321.641 127.409 321.058 126.337 320.346 125.352C319.319 123.944 318.214 122.593 317.038 121.306C316.925 121.17 316.762 121.085 316.586 121.069C316.409 121.054 316.234 121.109 316.098 121.222C315.962 121.336 315.877 121.499 315.862 121.675C315.846 121.851 315.901 122.027 316.015 122.162C317.112 123.454 318.137 124.804 319.085 126.208C319.703 127.107 320.199 128.083 320.561 129.112C321.191 130.682 321.341 132.404 320.994 134.06C320.647 135.716 319.817 137.232 318.609 138.417C316.613 140.121 314.288 141.393 311.777 142.155C309.266 142.917 306.626 143.151 304.02 142.844C297.023 142.487 292.287 140.726 289.431 138.251C288.168 137.273 287.229 135.936 286.736 134.417C286.244 132.897 286.221 131.264 286.67 129.731C288.455 123.686 296.69 118.569 308.661 120.401C308.761 120.418 308.863 120.416 308.962 120.393C309.061 120.371 309.155 120.329 309.238 120.271C309.321 120.212 309.391 120.138 309.445 120.052C309.5 119.966 309.536 119.871 309.554 119.771C309.571 119.671 309.568 119.568 309.545 119.469C309.523 119.37 309.482 119.277 309.423 119.194C309.364 119.111 309.29 119.04 309.204 118.986C309.118 118.932 309.023 118.895 308.923 118.878C295.714 116.498 286.623 122.377 284.457 129.04C282.981 133.586 284.457 138.56 290.145 141.916C294.375 144.142 299.074 145.333 303.854 145.391C306.808 145.642 309.783 145.276 312.589 144.317C315.396 143.359 317.972 141.828 320.156 139.822C321.556 138.342 322.487 136.481 322.83 134.473C323.173 132.466 322.913 130.401 322.084 128.541Z" fill="#10B981"/>
<path d="M284.84 192V182.368H281.08V180.48H291.064V182.368H287.304V192H284.84ZM293.971 192.16C293.065 192.16 292.275 191.984 291.603 191.632C290.931 191.269 290.409 190.768 290.035 190.128C289.673 189.488 289.491 188.752 289.491 187.92C289.491 187.077 289.673 186.341 290.035 185.712C290.409 185.072 290.926 184.576 291.587 184.224C292.249 183.861 293.017 183.68 293.891 183.68C294.734 183.68 295.465 183.851 296.083 184.192C296.702 184.533 297.182 185.008 297.523 185.616C297.865 186.224 298.035 186.939 298.035 187.76C298.035 187.931 298.03 188.091 298.019 188.24C298.009 188.379 297.993 188.512 297.971 188.64H290.899V187.056H296.035L295.619 187.344C295.619 186.683 295.459 186.197 295.139 185.888C294.83 185.568 294.403 185.408 293.859 185.408C293.23 185.408 292.739 185.621 292.387 186.048C292.046 186.475 291.875 187.115 291.875 187.968C291.875 188.8 292.046 189.419 292.387 189.824C292.739 190.229 293.262 190.432 293.955 190.432C294.339 190.432 294.67 190.368 294.947 190.24C295.225 190.112 295.433 189.904 295.571 189.616H297.827C297.561 190.405 297.102 191.029 296.451 191.488C295.811 191.936 294.985 192.16 293.971 192.16ZM303.883 192C303.819 191.765 303.771 191.515 303.739 191.248C303.718 190.981 303.707 190.672 303.707 190.32H303.643V186.464C303.643 186.133 303.531 185.877 303.307 185.696C303.094 185.504 302.774 185.408 302.347 185.408C301.942 185.408 301.616 185.477 301.371 185.616C301.136 185.755 300.982 185.957 300.907 186.224H298.619C298.726 185.488 299.104 184.88 299.755 184.4C300.406 183.92 301.296 183.68 302.427 183.68C303.6 183.68 304.496 183.941 305.115 184.464C305.734 184.987 306.043 185.739 306.043 186.72V190.32C306.043 190.587 306.059 190.859 306.091 191.136C306.134 191.403 306.198 191.691 306.283 192H303.883ZM301.035 192.16C300.224 192.16 299.579 191.957 299.099 191.552C298.619 191.136 298.379 190.587 298.379 189.904C298.379 189.147 298.662 188.539 299.227 188.08C299.803 187.611 300.603 187.307 301.627 187.168L304.011 186.832V188.224L302.027 188.528C301.6 188.592 301.286 188.709 301.083 188.88C300.88 189.051 300.779 189.285 300.779 189.584C300.779 189.851 300.875 190.053 301.067 190.192C301.259 190.331 301.515 190.4 301.835 190.4C302.336 190.4 302.763 190.267 303.115 190C303.467 189.723 303.643 189.403 303.643 189.04L303.867 190.32C303.632 190.928 303.275 191.387 302.795 191.696C302.315 192.005 301.728 192.16 301.035 192.16ZM307.488 192V183.84H309.84V185.76H309.888V192H307.488ZM312.976 192V186.816C312.976 186.4 312.864 186.096 312.64 185.904C312.426 185.701 312.122 185.6 311.728 185.6C311.386 185.6 311.072 185.68 310.784 185.84C310.506 185.989 310.288 186.208 310.128 186.496C309.968 186.773 309.888 187.104 309.888 187.488L309.68 185.648C309.946 185.051 310.33 184.576 310.832 184.224C311.344 183.861 311.957 183.68 312.672 183.68C313.525 183.68 314.186 183.92 314.656 184.4C315.136 184.88 315.376 185.483 315.376 186.208V192H312.976ZM318.464 192V186.816C318.464 186.4 318.352 186.096 318.128 185.904C317.914 185.701 317.61 185.6 317.216 185.6C316.874 185.6 316.56 185.68 316.272 185.84C315.994 185.989 315.776 186.208 315.616 186.496C315.456 186.773 315.376 187.104 315.376 187.488L315.008 185.648C315.274 185.051 315.669 184.576 316.192 184.224C316.725 183.861 317.365 183.68 318.112 183.68C318.997 183.68 319.674 183.931 320.144 184.432C320.624 184.923 320.864 185.568 320.864 186.368V192H318.464ZM325.556 192.16C324.361 192.16 323.412 191.92 322.708 191.44C322.004 190.96 321.62 190.299 321.556 189.456H323.7C323.753 189.819 323.934 190.096 324.244 190.288C324.564 190.469 325.001 190.56 325.556 190.56C326.057 190.56 326.42 190.491 326.644 190.352C326.878 190.203 326.996 189.995 326.996 189.728C326.996 189.525 326.926 189.371 326.788 189.264C326.66 189.147 326.42 189.051 326.068 188.976L324.756 188.704C323.785 188.501 323.07 188.197 322.612 187.792C322.153 187.376 321.924 186.843 321.924 186.192C321.924 185.403 322.228 184.789 322.836 184.352C323.444 183.904 324.292 183.68 325.38 183.68C326.457 183.68 327.316 183.899 327.956 184.336C328.596 184.763 328.948 185.36 329.012 186.128H326.868C326.825 185.851 326.676 185.643 326.42 185.504C326.164 185.355 325.801 185.28 325.332 185.28C324.905 185.28 324.585 185.344 324.372 185.472C324.169 185.589 324.068 185.76 324.068 185.984C324.068 186.176 324.153 186.331 324.324 186.448C324.494 186.555 324.777 186.651 325.172 186.736L326.644 187.04C327.465 187.211 328.084 187.531 328.5 188C328.926 188.459 329.14 189.003 329.14 189.632C329.14 190.432 328.825 191.056 328.196 191.504C327.577 191.941 326.697 192.16 325.556 192.16Z" fill="#0770E3"/>
<path d="M18.3337 192V190.08H21.2457C22.0777 190.08 22.7817 189.915 23.3577 189.584C23.9444 189.243 24.387 188.779 24.6857 188.192C24.995 187.605 25.1497 186.933 25.1497 186.176C25.1497 185.429 25.0004 184.773 24.7017 184.208C24.403 183.643 23.9604 183.2 23.3737 182.88C22.7977 182.56 22.0884 182.4 21.2457 182.4H18.3817V180.48H21.2457C22.5364 180.48 23.6617 180.715 24.6217 181.184C25.5817 181.643 26.323 182.304 26.8457 183.168C27.379 184.021 27.6457 185.035 27.6457 186.208C27.6457 187.381 27.379 188.405 26.8457 189.28C26.3124 190.144 25.5657 190.816 24.6057 191.296C23.6564 191.765 22.5417 192 21.2617 192H18.3337ZM16.8297 192V180.48H19.2937V192H16.8297ZM33.5694 192C33.5054 191.765 33.4574 191.515 33.4254 191.248C33.4041 190.981 33.3934 190.672 33.3934 190.32H33.3294V186.464C33.3294 186.133 33.2174 185.877 32.9934 185.696C32.7801 185.504 32.4601 185.408 32.0334 185.408C31.6281 185.408 31.3028 185.477 31.0574 185.616C30.8228 185.755 30.6681 185.957 30.5934 186.224H28.3054C28.4121 185.488 28.7908 184.88 29.4414 184.4C30.0921 183.92 30.9828 183.68 32.1134 183.68C33.2868 183.68 34.1828 183.941 34.8014 184.464C35.4201 184.987 35.7294 185.739 35.7294 186.72V190.32C35.7294 190.587 35.7454 190.859 35.7774 191.136C35.8201 191.403 35.8841 191.691 35.9694 192H33.5694ZM30.7214 192.16C29.9108 192.16 29.2654 191.957 28.7854 191.552C28.3054 191.136 28.0654 190.587 28.0654 189.904C28.0654 189.147 28.3481 188.539 28.9134 188.08C29.4894 187.611 30.2894 187.307 31.3134 187.168L33.6974 186.832V188.224L31.7134 188.528C31.2868 188.592 30.9721 188.709 30.7694 188.88C30.5668 189.051 30.4654 189.285 30.4654 189.584C30.4654 189.851 30.5614 190.053 30.7534 190.192C30.9454 190.331 31.2014 190.4 31.5214 190.4C32.0228 190.4 32.4494 190.267 32.8014 190C33.1534 189.723 33.3294 189.403 33.3294 189.04L33.5534 190.32C33.3188 190.928 32.9614 191.387 32.4814 191.696C32.0014 192.005 31.4148 192.16 30.7214 192.16ZM40.4836 192.176C39.4382 192.176 38.6596 191.925 38.1476 191.424C37.6462 190.912 37.3956 190.139 37.3956 189.104V182.016L39.7956 181.12V189.184C39.7956 189.547 39.8969 189.819 40.0996 190C40.3022 190.181 40.6169 190.272 41.0436 190.272C41.2036 190.272 41.3529 190.256 41.4916 190.224C41.6302 190.192 41.7689 190.155 41.9076 190.112V191.936C41.7689 192.011 41.5716 192.069 41.3156 192.112C41.0702 192.155 40.7929 192.176 40.4836 192.176ZM35.8756 185.664V183.84H41.9076V185.664H35.8756ZM47.9257 192C47.8617 191.765 47.8137 191.515 47.7817 191.248C47.7604 190.981 47.7497 190.672 47.7497 190.32H47.6857V186.464C47.6857 186.133 47.5737 185.877 47.3497 185.696C47.1364 185.504 46.8164 185.408 46.3897 185.408C45.9844 185.408 45.659 185.477 45.4137 185.616C45.179 185.755 45.0244 185.957 44.9497 186.224H42.6617C42.7684 185.488 43.147 184.88 43.7977 184.4C44.4484 183.92 45.339 183.68 46.4697 183.68C47.643 183.68 48.539 183.941 49.1577 184.464C49.7764 184.987 50.0857 185.739 50.0857 186.72V190.32C50.0857 190.587 50.1017 190.859 50.1337 191.136C50.1764 191.403 50.2404 191.691 50.3257 192H47.9257ZM45.0777 192.16C44.267 192.16 43.6217 191.957 43.1417 191.552C42.6617 191.136 42.4217 190.587 42.4217 189.904C42.4217 189.147 42.7044 188.539 43.2697 188.08C43.8457 187.611 44.6457 187.307 45.6697 187.168L48.0537 186.832V188.224L46.0697 188.528C45.643 188.592 45.3284 188.709 45.1257 188.88C44.923 189.051 44.8217 189.285 44.8217 189.584C44.8217 189.851 44.9177 190.053 45.1097 190.192C45.3017 190.331 45.5577 190.4 45.8777 190.4C46.379 190.4 46.8057 190.267 47.1577 190C47.5097 189.723 47.6857 189.403 47.6857 189.04L47.9097 190.32C47.675 190.928 47.3177 191.387 46.8377 191.696C46.3577 192.005 45.771 192.16 45.0777 192.16Z" fill="#0770E3"/>
<path fill-rule="evenodd" clip-rule="evenodd" d="M63.0267 149.962C61.7102 148.383 60.0498 147.138 58.1771 146.327C56.3044 145.516 54.2715 145.16 52.2402 145.29C50.2089 145.419 48.2352 146.029 46.4764 147.071C44.7176 148.113 43.2222 149.558 42.1096 151.292C38.4128 156.841 40.3289 165.05 44.003 167.343C44.1524 167.447 44.336 167.485 44.5135 167.451C44.691 167.416 44.8478 167.312 44.9495 167.16C45.0512 167.008 45.0893 166.821 45.0555 166.64C45.0215 166.46 44.9187 166.3 44.7693 166.197C41.8389 164.11 40.5317 157.024 43.8225 152.438C44.7855 151.072 46.0385 149.945 47.4887 149.139C48.9388 148.333 50.5487 147.87 52.1986 147.785C53.8487 147.699 55.4966 147.992 57.0201 148.643C58.5434 149.294 59.903 150.285 60.9981 151.544C66.4528 158.102 63.2519 168.008 53.6726 169.155C51.9236 169.414 50.1405 169.289 48.4433 168.788C48.2489 168.721 48.0365 168.735 47.8527 168.828C47.6687 168.92 47.5285 169.083 47.4628 169.281C47.3971 169.478 47.411 169.695 47.5019 169.882C47.5928 170.069 47.753 170.211 47.9474 170.278C49.841 170.916 51.8467 171.134 53.8303 170.92C56.1881 170.855 58.4795 170.113 60.4406 168.78C62.4017 167.447 63.9521 165.577 64.9136 163.386C65.875 161.195 66.208 158.772 65.8741 156.397C65.5402 154.022 64.5531 151.791 63.0267 149.962Z" fill="#10B981"/>
<path fill-rule="evenodd" clip-rule="evenodd" d="M49.955 163.56C52.5248 163.698 55.5677 156.429 56.7172 154.067C57.0576 153.703 57.2716 153.236 57.3258 152.737C57.3112 152.569 57.2468 152.41 57.1411 152.281C57.0353 152.152 56.8934 152.058 56.7338 152.013C56.5745 151.968 56.4056 151.974 56.2494 152.03C56.0935 152.085 55.9578 152.188 55.8606 152.324C55.3197 152.989 49.7523 161.244 49.8875 161.496C49.4366 161.496 47.1828 158.813 46.8446 158.607C46.5065 158.401 45.5374 158.997 46.0558 159.776C46.9121 161.083 48.4451 163.468 49.955 163.56Z" fill="#10B981"/>
<path fill-rule="evenodd" clip-rule="evenodd" d="M35.9321 156.704C36.1101 156.662 36.2674 156.557 36.3756 156.407C36.4838 156.257 36.5358 156.073 36.5221 155.887C36.5086 155.702 36.4303 155.527 36.3013 155.396C36.1724 155.264 36.0016 155.183 35.8194 155.168C29.0496 155.72 22.2496 154.587 16.0067 151.866C14.9699 151.866 14.7896 152.99 16.0067 153.769C22.1424 156.976 29.1543 158.009 35.9321 156.704Z" fill="#111111"/>
<path fill-rule="evenodd" clip-rule="evenodd" d="M20.1116 147.027C28.4739 148.563 36.4081 149.068 44.0266 145.835C44.1991 145.748 44.3335 145.598 44.4025 145.416C44.4718 145.233 44.4707 145.03 44.3996 144.848C44.3287 144.666 44.1928 144.518 44.0194 144.433C43.8457 144.348 43.6472 144.333 43.4629 144.39C35.4163 147.44 20.923 145.88 15.5134 143.564C14.5442 143.564 14.5667 144.757 15.5134 145.33C16.9347 146.17 18.4918 146.744 20.1116 147.027Z" fill="#111111"/>
<path fill-rule="evenodd" clip-rule="evenodd" d="M33.7473 137.534C29.3745 137.672 19.4344 137.718 15.5124 135.241C14.5432 135.241 13.8895 136.135 15.5124 137.099C18.375 139.025 24.5284 140.125 31.2904 140.171C36.9255 140.171 43.0563 139.69 47.6544 137.053C48.3982 136.135 48.0828 134.989 47.4291 135.31C43.1166 137.181 38.4181 137.945 33.7473 137.534Z" fill="#111111"/>
<path fill-rule="evenodd" clip-rule="evenodd" d="M50.5169 123.409C50.5169 120.405 45.8735 117.859 43.1913 117.905C43.0813 117.886 42.9683 117.891 42.8606 117.921C42.7526 117.95 42.6524 118.004 42.5669 118.077C42.4814 118.15 42.4128 118.241 42.3656 118.344C42.3185 118.448 42.294 118.56 42.294 118.673C42.294 118.787 42.3185 118.899 42.3656 119.002C42.4128 119.106 42.4814 119.197 42.5669 119.27C42.6524 119.343 42.7526 119.396 42.8606 119.426C42.9683 119.456 43.0813 119.461 43.1913 119.442C45.0622 119.442 48.7137 121.528 48.6685 123.432C48.6685 124.67 47.4515 125.954 44.4086 126.94C41.1193 127.85 37.7186 128.274 34.3106 128.201C29.8026 128.201 23.1984 128.614 19.1412 126.734C17.6519 126.226 16.327 125.314 15.3094 124.096C14.3402 122.377 18.3748 120.886 20.1555 120.107C25.6778 118.318 31.989 118.823 37.8494 118.823C38.0287 118.823 38.2008 118.75 38.3275 118.621C38.4544 118.492 38.5255 118.317 38.5255 118.135C38.5255 117.952 38.4544 117.777 38.3275 117.648C38.2008 117.519 38.0287 117.447 37.8494 117.447C30.0054 116.965 22.973 116.208 16.211 119.304C14.2275 120.198 12.4017 121.872 12.6722 123.982C11.9735 128.476 12.5144 133.865 12.2665 136.708C11.8474 143.071 11.9227 149.458 12.4919 155.809C12.7305 157.998 13.7878 160.01 15.4446 161.427C18.2396 163.72 26.7146 165.28 32.8906 164.913C33.0899 164.901 33.2767 164.81 33.4115 164.66C33.5462 164.51 33.618 164.313 33.6118 164.11C33.6118 162.459 29.9604 164.431 21.553 161.657C19.923 161.316 18.3851 160.619 17.045 159.616C15.91 158.784 15.1094 157.562 14.7909 156.176C13.3709 148.059 13.9119 128.774 13.9344 126.367C18.9608 131.526 28.0219 130.953 34.3782 130.632C44.4761 130.288 47.6542 127.697 48.4883 127.077C49.3223 126.458 48.9842 138.359 49.1194 139.345C49.1194 139.528 49.1907 139.703 49.3174 139.832C49.4443 139.961 49.6162 140.033 49.7955 140.033C49.9748 140.033 50.147 139.961 50.2736 139.832C50.4005 139.703 50.4719 139.528 50.4719 139.345C51.3509 129.187 50.7423 134.713 50.5169 123.409Z" fill="#111111"/>
<path d="M83.108 160.599C82.2705 160.645 81.5011 160.681 80.7278 160.733C78.7844 160.862 76.837 160.997 74.8936 161.131C74.2004 161.178 73.5072 161.225 72.814 161.26C72.6297 161.272 72.4413 161.272 72.261 161.213C72.0967 161.161 71.9645 160.967 72.0086 160.704C72.0366 160.54 72.1288 160.353 72.229 160.271C72.3371 160.177 72.4854 160.177 72.6176 160.165C73.2027 160.107 73.7877 160.048 74.3767 160.013C77.1736 159.832 79.9745 159.662 82.7714 159.486C82.8715 159.48 82.9757 159.433 83.0759 159.41C83.2322 159.018 83.148 158.619 83.1641 158.245C83.1761 157.975 83.1761 157.7 83.2161 157.437C83.2562 157.161 83.5447 156.939 83.725 157.015C83.8012 157.044 83.8813 157.091 83.9454 157.156C84.9592 158.192 86.0972 158.86 87.2271 159.568C87.4435 159.703 87.6559 159.884 87.8482 160.089C88.0526 160.312 88.0486 160.786 87.8482 161.008C87.7 161.172 87.5317 161.295 87.3634 161.413C86.3416 162.092 85.3318 162.789 84.3742 163.649C84.1979 163.807 83.9895 163.913 83.7851 163.983C83.5527 164.065 83.3404 163.842 83.3804 163.479C83.4365 162.97 83.1641 162.613 83.1841 162.133C83.2041 161.664 83.2242 161.196 83.108 160.599Z" fill="#868686"/>
<path d="M261.108 160.599C260.27 160.645 259.501 160.681 258.728 160.733C256.784 160.862 254.837 160.997 252.894 161.131C252.2 161.178 251.507 161.225 250.814 161.26C250.63 161.272 250.441 161.272 250.261 161.213C250.097 161.161 249.964 160.967 250.009 160.704C250.037 160.54 250.129 160.353 250.229 160.271C250.337 160.177 250.485 160.177 250.618 160.165C251.203 160.107 251.788 160.048 252.377 160.013C255.174 159.832 257.974 159.662 260.771 159.486C260.872 159.48 260.976 159.433 261.076 159.41C261.232 159.018 261.148 158.619 261.164 158.245C261.176 157.975 261.176 157.7 261.216 157.437C261.256 157.161 261.545 156.939 261.725 157.015C261.801 157.044 261.881 157.091 261.945 157.156C262.959 158.192 264.097 158.86 265.227 159.568C265.444 159.703 265.656 159.884 265.848 160.089C266.053 160.312 266.049 160.786 265.848 161.008C265.7 161.172 265.532 161.295 265.363 161.413C264.342 162.092 263.332 162.789 262.374 163.649C262.198 163.807 261.989 163.913 261.785 163.983C261.553 164.065 261.34 163.842 261.38 163.479C261.437 162.97 261.164 162.613 261.184 162.133C261.204 161.664 261.224 161.196 261.108 160.599Z" fill="#868686"/>
<path d="M82.2306 82.1592C81.8588 81.8308 81.4746 81.8304 81.1323 81.6788C80.9327 81.5908 80.7139 81.5552 80.5208 81.4498C80.1952 81.2726 80.1549 80.8107 80.4322 80.5071C80.5109 80.4208 80.6155 80.3518 80.7148 80.3243C81.9679 79.966 83.1963 79.4957 84.4019 78.9183C84.6743 78.7872 84.9702 78.7002 85.2583 78.6817C85.704 78.6529 85.9089 79.024 85.7562 79.5863C85.3595 81.0383 84.9279 82.4737 84.3116 83.7909C84.0984 84.2443 83.8967 84.7137 83.6706 85.1585C83.5388 85.4235 83.3776 85.674 83.2079 85.8937C82.9956 86.1654 82.7683 86.099 82.6053 85.7827C82.4522 85.4898 82.4368 85.1833 82.4924 84.859C82.5689 84.3997 82.5615 83.9496 82.5075 83.4234C82.1903 83.5145 81.9948 83.7605 81.7843 83.9496C79.4669 86.0055 77.1516 88.066 74.8342 90.1218C74.6806 90.2603 74.5115 90.3733 74.3419 90.4743C74.1847 90.5718 74.0167 90.5467 73.9126 90.3467C73.8106 90.1515 73.8422 89.9333 73.9599 89.7541C74.0306 89.649 74.1183 89.562 74.2079 89.4796C74.5334 89.1698 74.8583 88.8478 75.1993 88.5634C77.5642 86.6079 79.8205 84.431 82.1198 82.333C82.1337 82.3222 82.1465 82.2872 82.2306 82.1592Z" fill="#868686"/>
<path d="M260.231 87.3007C259.859 87.6292 259.475 87.6296 259.132 87.7811C258.933 87.8691 258.714 87.9047 258.521 88.0102C258.195 88.1874 258.155 88.6493 258.432 88.9528C258.511 89.0392 258.616 89.1082 258.715 89.1356C259.968 89.494 261.196 89.9642 262.402 90.5417C262.674 90.6728 262.97 90.7597 263.258 90.7782C263.704 90.8071 263.909 90.436 263.756 89.8736C263.36 88.4216 262.928 86.9862 262.312 85.6691C262.098 85.2157 261.897 84.7463 261.671 84.3015C261.539 84.0364 261.378 83.7859 261.208 83.5662C260.996 83.2946 260.768 83.361 260.605 83.6773C260.452 83.9702 260.437 84.2766 260.492 84.601C260.569 85.0603 260.561 85.5103 260.508 86.0366C260.19 85.9455 259.995 85.6994 259.784 85.5104C257.467 83.4545 255.152 81.394 252.834 79.3381C252.681 79.1997 252.512 79.0867 252.342 78.9857C252.185 78.8882 252.017 78.9133 251.913 79.1132C251.811 79.3085 251.842 79.5267 251.96 79.7058C252.031 79.8109 252.118 79.898 252.208 79.9804C252.533 80.2902 252.858 80.6121 253.199 80.8966C255.564 82.8521 257.82 85.029 260.12 87.127C260.134 87.1378 260.147 87.1728 260.231 87.3007Z" fill="#868686"/>
<path d="M85.9533 232.514C85.8538 232.405 85.7589 232.286 85.6524 232.19C84.7916 231.398 83.934 230.608 83.0709 229.82C81.7653 228.631 80.463 227.445 79.1574 226.255C77.4767 224.723 75.797 223.198 74.1187 221.662C73.834 221.4 73.553 221.122 73.2799 220.837C73.2008 220.754 73.1315 220.634 73.0902 220.508C73.06 220.425 73.069 220.288 73.1054 220.21C73.1418 220.132 73.2439 220.051 73.2979 220.07C73.4743 220.127 73.6606 220.194 73.8118 220.327C75.0458 221.401 76.2719 222.48 77.4989 223.567C79.3903 225.25 81.2804 226.944 83.1695 228.632C83.7916 229.187 84.4123 229.754 85.0321 230.313C85.18 230.443 85.3327 230.564 85.5788 230.769C85.5423 230.494 85.5345 230.36 85.5086 230.242C85.4191 229.862 85.3082 229.496 85.2331 229.117C85.1673 228.767 85.2663 228.497 85.4569 228.389C85.6634 228.269 85.8179 228.405 85.9532 228.596C86.0057 228.673 86.0489 228.768 86.0945 228.859C86.6885 230.005 87.2835 231.16 87.8751 232.311C87.9082 232.369 87.93 232.43 87.9583 232.497C88.3714 233.456 88.2495 233.797 87.4474 233.859C86.9439 233.898 86.4349 233.892 85.9291 233.888C85.3688 233.885 84.8077 233.875 84.2511 233.855C83.8734 233.843 83.6613 233.657 83.6448 233.336C83.6261 232.972 83.8523 232.685 84.2412 232.648C84.5309 232.622 84.8294 232.645 85.1205 232.654C85.3827 232.661 85.6435 232.68 85.9033 232.692C85.9136 232.636 85.9351 232.577 85.9533 232.514Z" fill="#868686"/>
<path d="M263.953 221.434C263.854 221.543 263.759 221.662 263.652 221.758C262.792 222.551 261.934 223.34 261.071 224.128C259.765 225.317 258.463 226.504 257.157 227.693C255.477 229.225 253.797 230.75 252.119 232.286C251.834 232.548 251.553 232.827 251.28 233.111C251.201 233.194 251.132 233.314 251.09 233.441C251.06 233.523 251.069 233.661 251.105 233.739C251.142 233.816 251.244 233.897 251.298 233.878C251.474 233.821 251.661 233.754 251.812 233.621C253.046 232.547 254.272 231.468 255.499 230.381C257.39 228.699 259.28 227.004 261.169 225.317C261.792 224.762 262.412 224.195 263.032 223.635C263.18 223.505 263.333 223.385 263.579 223.18C263.542 223.455 263.535 223.588 263.509 223.707C263.419 224.086 263.308 224.453 263.233 224.831C263.167 225.181 263.266 225.451 263.457 225.56C263.663 225.679 263.818 225.543 263.953 225.352C264.006 225.275 264.049 225.18 264.094 225.089C264.689 223.943 265.283 222.789 265.875 221.638C265.908 221.579 265.93 221.518 265.958 221.451C266.371 220.493 266.249 220.151 265.447 220.089C264.944 220.05 264.435 220.057 263.929 220.06C263.369 220.063 262.808 220.074 262.251 220.093C261.873 220.106 261.661 220.291 261.645 220.613C261.626 220.977 261.852 221.264 262.241 221.3C262.531 221.326 262.829 221.303 263.12 221.295C263.383 221.287 263.643 221.268 263.903 221.256C263.914 221.313 263.935 221.372 263.953 221.434Z" fill="#868686"/>
<defs>
<filter id="filter0_dd_445_11115" x="91" y="7" width="152" height="120" filterUnits="userSpaceOnUse" color-interpolation-filters="sRGB">
<feFlood flood-opacity="0" result="BackgroundImageFix"/>
<feColorMatrix in="SourceAlpha" type="matrix" values="0 0 0 0 0 0 0 0 0 0 0 0 0 0 0 0 0 0 127 0" result="hardAlpha"/>
<feMorphology radius="2" operator="erode" in="SourceAlpha" result="effect1_dropShadow_445_11115"/>
<feOffset dy="2"/>
<feGaussianBlur stdDeviation="2"/>
<feComposite in2="hardAlpha" operator="out"/>
<feColorMatrix type="matrix" values="0 0 0 0 0 0 0 0 0 0 0 0 0 0 0 0 0 0 0.1 0"/>
<feBlend mode="normal" in2="BackgroundImageFix" result="effect1_dropShadow_445_11115"/>
<feColorMatrix in="SourceAlpha" type="matrix" values="0 0 0 0 0 0 0 0 0 0 0 0 0 0 0 0 0 0 127 0" result="hardAlpha"/>
<feMorphology radius="1" operator="erode" in="SourceAlpha" result="effect2_dropShadow_445_11115"/>
<feOffset dy="4"/>
<feGaussianBlur stdDeviation="3"/>
<feComposite in2="hardAlpha" operator="out"/>
<feColorMatrix type="matrix" values="0 0 0 0 0 0 0 0 0 0 0 0 0 0 0 0 0 0 0.1 0"/>
<feBlend mode="normal" in2="effect1_dropShadow_445_11115" result="effect2_dropShadow_445_11115"/>
<feBlend mode="normal" in="SourceGraphic" in2="effect2_dropShadow_445_11115" result="shape"/>
</filter>
<linearGradient id="paint0_linear_445_11115" x1="96" y1="63" x2="238" y2="63" gradientUnits="userSpaceOnUse">
<stop stop-color="#1F97D3" stop-opacity="0.5"/>
<stop offset="0.47" stop-color="#7414DA" stop-opacity="0.5"/>
<stop offset="1" stop-color="#0770E3" stop-opacity="0.5"/>
</linearGradient>
<clipPath id="clip0_445_11115">
<rect width="18" height="18" fill="white" transform="translate(123 156)"/>
</clipPath>
</defs>
</svg>
